<?xml version="1.0" encoding="utf-8"?>
<!-- Generator: Adobe Illustrator 25.1.0, SVG Export Plug-In . SVG Version: 6.00 Build 0)  -->
<svg version="1.1" id="Layer_1" xmlns="http://www.w3.org/2000/svg" xmlns:xlink="http://www.w3.org/1999/xlink" x="0px" y="0px" width="960" height="540"
	 viewBox="0 0 960 540" style="enable-background:new 0 0 960 540;" xml:space="preserve">
<style type="text/css">
	.st0{fill:#8C131B;}
</style>
<path class="st0" d="M813.06,232.49c-58.51,90.4-102.89,56.19-117.69,41.53c-14.8-14.66-30.94-80.01-101.55-48.86
	s-16.81-54.36-102.22-58.03c-4.08-0.18-7.94-0.17-11.6-0.02c-3.66-0.15-7.52-0.16-11.6,0.02c-85.41,3.66-31.61,89.18-102.22,58.03
	s-86.75,34.2-101.55,48.86c-14.8,14.66-59.18,48.86-117.69-41.53S0,183.82,0,183.82V540h409.02h141.96H960V183.82
	C960,183.82,871.57,142.09,813.06,232.49z"/>
</svg>
