<?xml version="1.0" encoding="utf-8"?>
<!-- Generator: Adobe Illustrator 25.1.0, SVG Export Plug-In . SVG Version: 6.00 Build 0)  -->
<svg version="1.1" id="Layer_1" xmlns="http://www.w3.org/2000/svg" xmlns:xlink="http://www.w3.org/1999/xlink" x="0px" y="0px" width="960" height="540"
	 viewBox="0 0 960 540" style="enable-background:new 0 0 960 540;" xml:space="preserve">
<style type="text/css">
	.st0{fill:#C1272D;}
</style>
<path class="st0" d="M813.06,316.25c-58.51,148-102.89,92-117.69,68s-30.94-131-101.55-80s-16.81-89-102.22-95
	c-4.08-0.29-7.94-0.29-11.6-0.03c-3.66-0.25-7.52-0.25-11.6,0.03c-85.41,6-31.61,146-102.22,95s-86.75,56-101.55,80
	c-14.8,24-59.18,80-117.69-68S0,236.58,0,236.58v303.17h409.02h141.96H960V236.58C960,236.58,871.57,168.25,813.06,316.25z"/>
</svg>
