<?xml version="1.0" encoding="utf-8"?>
<!-- Generator: Adobe Illustrator 25.1.0, SVG Export Plug-In . SVG Version: 6.00 Build 0)  -->
<svg version="1.1" id="Layer_1" xmlns="http://www.w3.org/2000/svg" xmlns:xlink="http://www.w3.org/1999/xlink" x="0px" y="0px" width="960" height="540"
	 viewBox="0 0 960 540" style="enable-background:new 0 0 960 540;" xml:space="preserve">
<style type="text/css">
	.st0{fill:#5B050D;}
</style>
<path class="st0" d="M883.04,103.07c-30.64,29.08-53.89,18.08-61.64,13.36c-7.75-4.72-16.2-25.74-53.18-15.72
	c-36.98,10.02-8.81-17.49-53.54-18.67c-2.14-0.06-4.16-0.06-6.08-0.01c-1.92-0.05-3.94-0.05-6.08,0.01
	c-44.73,1.18-16.55,28.69-53.54,18.67c-36.98-10.02-45.44,11-53.18,15.72c-7.75,4.72-30.99,15.72-61.64-13.36
	c-16.75-15.9-38.18-19.09-54.18-18.72c-15.99-0.37-37.43,2.82-54.18,18.72c-30.64,29.08-53.89,18.08-61.64,13.36
	c-7.75-4.72-16.2-25.74-53.18-15.72s-8.81-17.49-53.54-18.67c-2.14-0.06-4.16-0.06-6.08-0.01c-1.92-0.05-3.94-0.05-6.08,0.01
	c-44.73,1.18-16.55,28.69-53.54,18.67c-36.98-10.02-45.44,11-53.18,15.72c-7.75,4.72-30.99,15.72-61.64-13.36S0,87.41,0,87.41V540
	h214.22h74.35h168.65h45.56h168.65h74.35H960V87.41C960,87.41,913.68,73.99,883.04,103.07z"/>
</svg>
